<svg width="18" height="20" viewBox="0 0 18 20" fill="none" xmlns="http://www.w3.org/2000/svg">
<path fill-rule="evenodd" clip-rule="evenodd" d="M2.40742 0H15.9223C17.062 0 17.9899 0.927887 18 2.06757V20L15.8214 18.114L14.6011 16.9945L13.3101 15.8043L13.8446 17.65H2.40742C1.26773 17.65 0.339844 16.7221 0.339844 15.5825V2.06757C0.339844 0.927887 1.26773 0 2.40742 0ZM11.3635 12.2542C11.6661 12.6273 12.0292 13.061 12.0292 13.061C14.1409 12.9941 15.0124 11.687 15.0982 11.5583C15.103 11.5511 15.1054 11.5476 15.1054 11.5482C15.1054 8.33081 13.653 5.71861 13.653 5.71861C12.2107 4.63944 10.829 4.66969 10.829 4.66969L10.6878 4.83106C12.4024 5.34544 13.1991 6.10187 13.1991 6.10187C12.1502 5.53707 11.1215 5.25466 10.1633 5.14372C9.43717 5.06304 8.74126 5.08321 8.12603 5.16389C8.0732 5.16389 8.02805 5.17158 7.97718 5.18024C7.96978 5.1815 7.96225 5.18278 7.95457 5.18406C7.60157 5.22441 6.74428 5.34544 5.66511 5.81947C5.29194 5.98084 5.07005 6.10187 5.07005 6.10187C5.07005 6.10187 5.89708 5.30509 7.71251 4.79072L7.61165 4.66969C7.61165 4.66969 6.24 4.63944 4.78765 5.71861C4.78765 5.71861 3.33531 8.33081 3.33531 11.5482C3.33531 11.5482 4.18251 13.0005 6.41145 13.0711C6.41145 13.0711 6.78462 12.6273 7.0872 12.2441C5.80631 11.8608 5.32219 11.064 5.32219 11.064C5.32219 11.064 5.42305 11.1346 5.60459 11.2355C5.61083 11.2355 5.61706 11.2394 5.62568 11.2447C5.631 11.248 5.63723 11.2518 5.64494 11.2557C5.66007 11.2658 5.67519 11.2733 5.69032 11.2809C5.70545 11.2885 5.72058 11.296 5.73571 11.3061C5.98785 11.4473 6.24 11.5582 6.47197 11.649C6.88548 11.8205 7.37968 11.9718 7.95457 12.0827C8.711 12.2239 9.59854 12.2743 10.5668 12.0928C11.0408 12.002 11.5249 11.8709 12.0292 11.6591C12.3822 11.528 12.7755 11.3364 13.1891 11.064C13.1891 11.064 12.6848 11.881 11.3635 12.2542Z" fill="#04396C"/>
</svg>
