<svg width="26" height="20" viewBox="0 0 26 20" fill="none" xmlns="http://www.w3.org/2000/svg">
<path d="M25.3398 2.36772C24.4344 2.76969 23.4612 3.0404 22.4399 3.16243C23.4828 2.53794 24.2836 1.5484 24.66 0.369155C23.6848 0.947498 22.604 1.36792 21.4534 1.59454C20.5336 0.613207 19.2201 0 17.768 0C14.5082 0 12.1128 3.04143 12.8491 6.19873C8.65402 5.98852 4.93376 3.97867 2.44299 0.923913C1.12018 3.19319 1.75697 6.16181 4.00472 7.66509C3.17822 7.63843 2.39889 7.41181 1.71903 7.03343C1.66366 9.37244 3.34024 11.5607 5.76846 12.0478C5.05784 12.2406 4.27953 12.2857 3.4879 12.1339C4.12982 14.1397 5.99405 15.5989 8.20488 15.6399C6.08224 17.3041 3.40792 18.0476 0.729492 17.7317C2.96391 19.1643 5.61875 20 8.46944 20C17.8439 20 23.1403 12.0826 22.8203 4.98154C23.8068 4.26887 24.663 3.37982 25.3398 2.36772Z" fill="#04396C"/>
</svg>
